<mxfile modified="2024-01-19T13:58:11.547Z" host="app.diagrams.net" agent="Mozilla/5.0 (Windows NT 10.0; Win64; x64) AppleWebKit/537.36 (KHTML, like Gecko) Chrome/120.0.0.0 Safari/537.36" etag="mbwKDi6LHgf4kq-ORPOG" version="22.1.21" type="github">
  <diagram id="C2fSY1v2SiZeoUbDoYyL" name="Page-1">
    <mxGraphModel dx="1114" dy="634" grid="1" gridSize="10" guides="1" tooltips="1" connect="1" arrows="1" fold="1" page="1" pageScale="1" pageWidth="1169" pageHeight="827" math="0" shadow="0">
      <root>
        <mxCell id="0" />
        <mxCell id="1" parent="0" />
        <mxCell id="3ne1QswCM8ZiEu4GHsYG-19" style="orthogonalLoop=1;jettySize=auto;html=1;curved=1;sourcePerimeterSpacing=5;targetPerimeterSpacing=5;exitX=0.97;exitY=0.358;exitDx=0;exitDy=0;exitPerimeter=0;entryX=0.008;entryY=0.4;entryDx=0;entryDy=0;entryPerimeter=0;" parent="1" source="FA12fwfccNncYvmULk3a-4" edge="1">
          <mxGeometry relative="1" as="geometry">
            <mxPoint x="498" y="231" as="sourcePoint" />
            <mxPoint x="590.6400000000001" y="230" as="targetPoint" />
          </mxGeometry>
        </mxCell>
        <mxCell id="3ne1QswCM8ZiEu4GHsYG-17" style="orthogonalLoop=1;jettySize=auto;html=1;curved=1;sourcePerimeterSpacing=5;targetPerimeterSpacing=5;entryX=-0.078;entryY=0.37;entryDx=0;entryDy=0;entryPerimeter=0;" parent="1" target="FA12fwfccNncYvmULk3a-4" edge="1">
          <mxGeometry relative="1" as="geometry">
            <mxPoint x="299.5" y="231.00000000000034" as="sourcePoint" />
            <mxPoint x="341.5" y="231.00000000000023" as="targetPoint" />
          </mxGeometry>
        </mxCell>
        <mxCell id="3ne1QswCM8ZiEu4GHsYG-31" value="Villa Management - UO" style="text;html=1;strokeColor=none;fillColor=none;align=center;verticalAlign=middle;whiteSpace=wrap;rounded=0;fontStyle=1;fontSize=20;fontColor=#4D4D4D;" parent="1" vertex="1">
          <mxGeometry x="189.5" y="50" width="790" height="30" as="geometry" />
        </mxCell>
        <mxCell id="3ne1QswCM8ZiEu4GHsYG-32" value="" style="line;strokeWidth=2;html=1;fontSize=20;fontColor=#4D4D4D;" parent="1" vertex="1">
          <mxGeometry x="103.5" y="80" width="960" height="10" as="geometry" />
        </mxCell>
        <mxCell id="FA12fwfccNncYvmULk3a-1" value="" style="shape=image;verticalLabelPosition=bottom;verticalAlign=top;aspect=fixed;image=data:image/svg+xml,PHN2ZyB4bWxucz0iaHR0cDovL3d3dy53My5vcmcvMjAwMC9zdmciIHhtbG5zOnhsaW5rPSJodHRwOi8vd3d3LnczLm9yZy8xOTk5L3hsaW5rIiB2ZXJzaW9uPSIxLjEiIGlkPSJMYXllcl8xIiB4PSIwcHgiIHk9IjBweCIgd2lkdGg9IjQ4cHgiIGhlaWdodD0iNDhweCIgdmlld0JveD0iMCAwIDQ4IDQ4IiBlbmFibGUtYmFja2dyb3VuZD0ibmV3IDAgMCA0OCA0OCIgeG1sOnNwYWNlPSJwcmVzZXJ2ZSI+JiN4YTs8ZyBpZD0iRWxsaXBzZV82X2NvcHkiPiYjeGE7CTxnPiYjeGE7CQk8cGF0aCBmaWxsPSIjRkZEQThFIiBkPSJNNDMuMTM3LDE1LjcyOEM0MS4wMjEsMTguNTc4LDM4LjUwNiwyMSwzOC41LDIxQzM4LjQ4LDIxLDMxLDEzLjc5NywzMSw5LjYgICAgYzAtMC45OTIsMC4xOTMtMS45MzgsMC41MzUtMi44MDdDMjkuNzc1LDYuMjg3LDI3LjkyMiw2LDI2LDZDMTQuOTU0LDYsNiwxNC45NTQsNiwyNnM4Ljk1NCwyMCwyMCwyMHMyMC04Ljk1NCwyMC0yMCAgICBDNDYsMjIuMjM4LDQ0Ljk0MiwxOC43MzIsNDMuMTM3LDE1LjcyOHoiLz4mI3hhOwk8L2c+JiN4YTs8L2c+JiN4YTs8ZyBpZD0iRWxsaXBzZV82Ij4mI3hhOwk8Zz4mI3hhOwkJPHBhdGggZmlsbD0iIzM4NEQ2OCIgZD0iTTM1LDE0YzIuMjA5LDAsNC0xLjc5MSw0LTRzLTEuNzkxLTQtNC00cy00LDEuNzkxLTQsNFMzMi43OTEsMTQsMzUsMTR6IE0zNSw4YzEuMTA0LDAsMiwwLjg5NiwyLDIgICAgcy0wLjg5NiwyLTIsMnMtMi0wLjg5Ni0yLTJTMzMuODk2LDgsMzUsOHogTTQ0LDE2Yy0wLjE4OC0wLjU4NC0wLjQ0Ny0xLTEtMWMtMS4yMzgsMC0xLjA3OCwxLjAzNS0wLjc3LDEuNjEzICAgIGMwLjcwMSwxLjg3OSwxLjYyOSw0LjQ5MywxLjcyMyw2LjM4N2gtNy4wNjRsLTEuMTc0LDEuMTc1Yy0wLjQwMywwLjQwMy0xLjA1NywwLjQwMy0xLjQ2MSwwTDMzLjA4LDIzSDI1di05YzAuNTUzLDAsMS0wLjQ0NywxLTEgICAgcy0wLjQ0Ny0xLTEtMVY1YzAuNTUzLDAsMS0wLjQ0NywxLTFjMC4xNSwwLjAxOCwwLjg1Mi0wLjAyMSwxLDBjMC41NTMsMCwxLTAuNDQ3LDEtMXMtMC40NDctMS0xLTFoLTNDMTEuODUsMiwyLDExLjg1LDIsMjQgICAgczkuODUsMjIsMjIsMjJzMjItOS44NSwyMi0yMkM0NiwyMS41NDYsNDQuOTk4LDE3LjkyLDQ0LDE2eiBNMjEuNjA0LDQuMTU3QzE4LjM2Niw1Ljk4OSwxNS43OTQsOC43MjYsMTMuOTksMTJIOC4wMDkgICAgQzExLjIwNiw3Ljc1NCwxNi4wNTUsNC44MiwyMS42MDQsNC4xNTd6IE02LjY5OSwxNGg2LjMxM2MtMS4xODYsMi43NjEtMS44NjUsNS44MTktMS45ODMsOUg0LjA0NyAgICBDNC4yMDksMTkuNzI5LDUuMTQ5LDE2LjY3LDYuNjk5LDE0eiBNNC4wNDcsMjVoNi45ODJjMC4xMTksMy4xODEsMC43OTcsNi4yMzksMS45ODMsOUg2LjY5OUM1LjE0OSwzMS4zMyw0LjIwOSwyOC4yNzEsNC4wNDcsMjV6ICAgICBNOC4wMDksMzZoNS45ODFjMS44MDQsMy4yNzQsNC4zNzYsNi4wMTEsNy42MTMsNy44NDNDMTYuMDU1LDQzLjE4LDExLjIwNiw0MC4yNDYsOC4wMDksMzZ6IE0yMyw0Mi41MDkgICAgYy0yLjg0OC0xLjQ4Ny01LjEzMS0zLjc1OS02Ljc5NC02LjUwOUgyM1Y0Mi41MDl6IE0yMywzNGgtNy44NjVjLTEuMjY2LTIuNzM2LTEuOTc5LTUuODE4LTIuMTA1LTlIMjNWMzR6IE0yMywyM2gtOS45NyAgICBjMC4xMjUtMy4xODIsMC44MzktNi4yNjQsMi4xMDUtOUgyM1YyM3ogTTIzLDEyaC02Ljc5NEMxNy44NjksOS4yNSwyMC4xNTIsNi45NzgsMjMsNS40OTFWMTJ6IE0yNSwyNWg5Ljk3ICAgIGMtMC4xMjUsMy4xODItMC44MzksNi4yNjQtMi4xMDQsOUgyNVYyNXogTTI1LDM2aDYuNzk0Yy0xLjY2MywyLjc1LTMuOTQ2LDUuMDIxLTYuNzk0LDYuNTA5VjM2eiBNMjYuMzk2LDQzLjg0MyAgICBjMy4yMzctMS44MzIsNS44MDktNC41NjgsNy42MTMtNy44NDNoNS45OEMzNi43OTQsNDAuMjQ2LDMxLjk0NSw0My4xOCwyNi4zOTYsNDMuODQzeiBNNDEuMzAxLDM0aC02LjMxMyAgICBjMS4xODYtMi43NjEsMS44NjQtNS44MTksMS45ODItOWg2Ljk4MkM0My43OTEsMjguMjcxLDQyLjg1MSwzMS4zMyw0MS4zMDEsMzR6IE0zNSwyMmMwLjAxMiwwLDgtNy41ODIsOC0xMnMtMy41ODItOC04LTggICAgcy04LDMuNTgyLTgsOFMzNC45OCwyMiwzNSwyMnogTTM1LDRjMy4zMTMsMCw2LDIuNjg3LDYsNnMtNS45NjgsOS02LDljLTAuMDAxLDAtNi01LjY4Ny02LTlTMzEuNjg2LDQsMzUsNHoiLz4mI3hhOwk8L2c+JiN4YTs8L2c+JiN4YTs8L3N2Zz4=;fontStyle=1;" vertex="1" parent="1">
          <mxGeometry x="260" y="210" width="48" height="48" as="geometry" />
        </mxCell>
        <mxCell id="FA12fwfccNncYvmULk3a-3" value="Landing Page Vila Manager&lt;br&gt;" style="text;strokeColor=none;align=center;fillColor=none;html=1;verticalAlign=middle;whiteSpace=wrap;rounded=0;" vertex="1" parent="1">
          <mxGeometry x="239" y="258" width="90" height="30" as="geometry" />
        </mxCell>
        <mxCell id="FA12fwfccNncYvmULk3a-4" value="" style="image;points=[];aspect=fixed;html=1;align=center;shadow=0;dashed=0;image=img/lib/allied_telesis/computer_and_terminals/Server_Desktop.svg;" vertex="1" parent="1">
          <mxGeometry x="440" y="211" width="42.599999999999994" height="54" as="geometry" />
        </mxCell>
        <mxCell id="FA12fwfccNncYvmULk3a-5" value="Cloud Server www.vilamanagerbali.com&lt;br&gt;" style="text;strokeColor=none;align=center;fillColor=none;html=1;verticalAlign=middle;whiteSpace=wrap;rounded=0;" vertex="1" parent="1">
          <mxGeometry x="422.6" y="264" width="60" height="30" as="geometry" />
        </mxCell>
        <mxCell id="FA12fwfccNncYvmULk3a-6" value="Internet" style="text;strokeColor=none;align=center;fillColor=none;html=1;verticalAlign=middle;whiteSpace=wrap;rounded=0;" vertex="1" parent="1">
          <mxGeometry x="329" y="197" width="61" height="33" as="geometry" />
        </mxCell>
        <mxCell id="FA12fwfccNncYvmULk3a-7" value="SSL" style="text;strokeColor=none;align=center;fillColor=none;html=1;verticalAlign=middle;whiteSpace=wrap;rounded=0;" vertex="1" parent="1">
          <mxGeometry x="431.3" y="150" width="60" height="30" as="geometry" />
        </mxCell>
        <mxCell id="FA12fwfccNncYvmULk3a-8" value="Firewall" style="text;strokeColor=none;align=center;fillColor=none;html=1;verticalAlign=middle;whiteSpace=wrap;rounded=0;" vertex="1" parent="1">
          <mxGeometry x="431.3" y="167" width="60" height="30" as="geometry" />
        </mxCell>
        <mxCell id="FA12fwfccNncYvmULk3a-10" value="" style="image;html=1;image=img/lib/clip_art/computers/Database_128x128.png" vertex="1" parent="1">
          <mxGeometry x="580" y="185" width="80" height="80" as="geometry" />
        </mxCell>
        <mxCell id="FA12fwfccNncYvmULk3a-11" value="Vila Management Core Database" style="text;strokeColor=none;align=center;fillColor=none;html=1;verticalAlign=middle;whiteSpace=wrap;rounded=0;" vertex="1" parent="1">
          <mxGeometry x="560" y="150" width="110" height="30" as="geometry" />
        </mxCell>
        <mxCell id="FA12fwfccNncYvmULk3a-12" value="Cloud Server admin dashboard admin-villa.vilamanagerbali.com&lt;br&gt;" style="text;strokeColor=none;align=center;fillColor=none;html=1;verticalAlign=middle;whiteSpace=wrap;rounded=0;" vertex="1" parent="1">
          <mxGeometry x="502.6" y="370" width="180" height="30" as="geometry" />
        </mxCell>
        <mxCell id="FA12fwfccNncYvmULk3a-20" style="edgeStyle=orthogonalEdgeStyle;rounded=0;orthogonalLoop=1;jettySize=auto;html=1;entryX=0.5;entryY=1;entryDx=0;entryDy=0;" edge="1" parent="1" source="FA12fwfccNncYvmULk3a-13" target="FA12fwfccNncYvmULk3a-10">
          <mxGeometry relative="1" as="geometry">
            <mxPoint x="635" y="319" as="targetPoint" />
          </mxGeometry>
        </mxCell>
        <mxCell id="FA12fwfccNncYvmULk3a-13" value="" style="image;points=[];aspect=fixed;html=1;align=center;shadow=0;dashed=0;image=img/lib/allied_telesis/computer_and_terminals/Server_Desktop.svg;fontColor=#f01414;" vertex="1" parent="1">
          <mxGeometry x="460" y="340.12" width="42.599999999999994" height="54" as="geometry" />
        </mxCell>
        <mxCell id="FA12fwfccNncYvmULk3a-17" style="edgeStyle=orthogonalEdgeStyle;rounded=0;orthogonalLoop=1;jettySize=auto;html=1;" edge="1" parent="1" source="FA12fwfccNncYvmULk3a-14" target="FA12fwfccNncYvmULk3a-13">
          <mxGeometry relative="1" as="geometry" />
        </mxCell>
        <mxCell id="FA12fwfccNncYvmULk3a-14" value="Admin" style="image;aspect=fixed;html=1;points=[];align=center;fontSize=12;image=img/lib/azure2/azure_stack/User_Subscriptions.svg;" vertex="1" parent="1">
          <mxGeometry x="260.61" y="348" width="39.39" height="38.23" as="geometry" />
        </mxCell>
        <mxCell id="FA12fwfccNncYvmULk3a-15" value="Owner&lt;br&gt;" style="image;aspect=fixed;html=1;points=[];align=center;fontSize=12;image=img/lib/azure2/management_governance/User_Privacy.svg;" vertex="1" parent="1">
          <mxGeometry x="263.42" y="430" width="37.65" height="40" as="geometry" />
        </mxCell>
        <mxCell id="FA12fwfccNncYvmULk3a-16" value="Staf Maintenance&lt;br&gt;" style="sketch=0;aspect=fixed;pointerEvents=1;shadow=0;dashed=0;html=1;strokeColor=none;labelPosition=center;verticalLabelPosition=bottom;verticalAlign=top;align=center;fillColor=#00188D;shape=mxgraph.azure.user" vertex="1" parent="1">
          <mxGeometry x="263.42" y="520" width="37.6" height="40" as="geometry" />
        </mxCell>
        <mxCell id="FA12fwfccNncYvmULk3a-18" style="edgeStyle=orthogonalEdgeStyle;rounded=0;orthogonalLoop=1;jettySize=auto;html=1;" edge="1" parent="1" source="FA12fwfccNncYvmULk3a-15" target="FA12fwfccNncYvmULk3a-13">
          <mxGeometry relative="1" as="geometry" />
        </mxCell>
        <mxCell id="FA12fwfccNncYvmULk3a-19" style="edgeStyle=orthogonalEdgeStyle;rounded=0;orthogonalLoop=1;jettySize=auto;html=1;entryX=0.673;entryY=0.985;entryDx=0;entryDy=0;entryPerimeter=0;" edge="1" parent="1" source="FA12fwfccNncYvmULk3a-16" target="FA12fwfccNncYvmULk3a-13">
          <mxGeometry relative="1" as="geometry" />
        </mxCell>
        <mxCell id="FA12fwfccNncYvmULk3a-22" value="SSL" style="text;strokeColor=none;align=center;fillColor=none;html=1;verticalAlign=middle;whiteSpace=wrap;rounded=0;" vertex="1" parent="1">
          <mxGeometry x="410" y="310.12" width="60" height="30" as="geometry" />
        </mxCell>
        <mxCell id="FA12fwfccNncYvmULk3a-23" value="Firewall" style="text;strokeColor=none;align=center;fillColor=none;html=1;verticalAlign=middle;whiteSpace=wrap;rounded=0;" vertex="1" parent="1">
          <mxGeometry x="410" y="327" width="60" height="30" as="geometry" />
        </mxCell>
      </root>
    </mxGraphModel>
  </diagram>
</mxfile>
